<?xml version="1.0" encoding="utf-8"?>
<!-- Generator: Adobe Illustrator 23.0.1, SVG Export Plug-In . SVG Version: 6.00 Build 0)  -->
<svg version="1.1" id="Lager_1" xmlns="http://www.w3.org/2000/svg" xmlns:xlink="http://www.w3.org/1999/xlink" x="0px" y="0px"
	 viewBox="0 0 457.9 109.4" style="enable-background:new 0 0 457.9 109.4;" xml:space="preserve">
<style type="text/css">
	.st0{fill-rule:evenodd;clip-rule:evenodd;fill:#191E27;}
	.st1{fill:#191E27;}
	.st2{fill:#FBEA26;}
</style>
<g id="Text">
	<polygon class="st0" points="263,41.6 263,41.6 258.5,28.3 252.6,28.3 252.6,47.7 256.5,47.7 256.5,34.1 256.6,34.1 261.3,47.7 
		264.5,47.7 269.2,34 269.3,34 269.3,47.7 273.2,47.7 273.2,28.3 267.3,28.3 	"/>
	<path class="st0" d="M282.2,43.3L282.2,43.3l-3.2-9.6h-4.1l4.9,13.2c0.4,1.1,0,2.5-1.3,2.6c-0.8,0-1.5-0.1-2.2-0.1v3.2
		c0.8,0.1,1.6,0.1,2.3,0.1c2.6,0,3.9-0.9,4.8-3.2l5.8-15.8h-3.9L282.2,43.3z"/>
	<path class="st0" d="M298.6,33.3c-1.6,0-3.3,0.8-4.2,2.3h-0.1v-2h-3.6v14h3.8v-7.4c0-2.9,0.9-4,2.9-4c1.8,0,2.4,1.1,2.4,3.4v7.9
		h3.8v-8.6C303.6,35.6,302.6,33.3,298.6,33.3z"/>
	<path class="st0" d="M316.3,35.4L316.3,35.4c-0.9-1.4-2.5-2.1-4.2-2.1c-4.1,0-6.1,3.5-6.1,7.3c0,3.9,2,7.5,6.2,7.5
		c1.8,0,3.3-0.7,4.2-2.2h0.1v1.8h3.6V28.3h-3.8L316.3,35.4L316.3,35.4z M313.1,45.2c-2.4,0-3.4-2.3-3.4-4.5c0-2.3,0.9-4.5,3.4-4.5
		s3.3,2.2,3.3,4.4C316.4,43,315.7,45.2,313.1,45.2z"/>
	<g>
		<rect x="323.1" y="33.7" class="st1" width="3.8" height="14"/>
		<rect x="323.1" y="28.3" class="st1" width="3.8" height="3.2"/>
	</g>
	<path class="st0" d="M339.5,35.5L339.5,35.5c-1-1.6-2.4-2.3-4.2-2.3c-3.9,0-6,3.3-6,6.9c0,3.9,1.8,7.1,5.9,7.1
		c1.7,0,3.3-0.7,4.2-2.2h0.1v1.8c0,2-0.9,3.5-3.1,3.5c-1.3,0-2.5-0.5-2.8-1.9h-3.8c0.2,3.2,3.4,4.5,6.1,4.5c6.4,0,7.2-3.9,7.2-6.2
		V33.6h-3.6L339.5,35.5L339.5,35.5z M336.3,44.4c-2.3,0-3.1-2.2-3.1-4.2c0-2.1,0.9-4,3.1-4c2.5,0,3.2,2,3.2,4.3
		C339.5,42.5,338.5,44.4,336.3,44.4z"/>
	<path class="st0" d="M354.2,33.3c-1.4,0-3.1,0.8-4,2.3H350v-7.3h-3.8v19.4h3.8v-7.4c0-2.8,0.9-4,2.9-4c1.8,0,2.4,1.1,2.4,3.4v7.9
		h3.8V39C359.2,35.6,358.2,33.3,354.2,33.3z"/>
	<path class="st0" d="M368.6,33.3c-4.2,0-7.1,3.2-7.1,7.4c0,4.3,2.7,7.4,7.1,7.4c3.1,0,5.4-1.4,6.5-4.7h-3.4c-0.2,0.9-1.5,1.8-3,1.8
		c-2.1,0-3.3-1.1-3.4-3.6h10C375.6,37.3,373.3,33.3,368.6,33.3z M365.3,39.2c0.1-1.1,0.7-3,3.2-3c1.9,0,2.7,1,3,3H365.3z"/>
	<path class="st0" d="M382.2,29.5h-3.8v4.2h-2.3v2.6h2.3v8.3c0,2.8,2,3.3,4.4,3.3c0.8,0,1.6,0,2.2-0.1v-3c-0.4,0.1-0.8,0.1-1.2,0.1
		c-1.3,0-1.6-0.3-1.6-1.6v-7h2.8v-2.6h-2.8V29.5z"/>
	<path class="st0" d="M393.2,33.3c-4.2,0-7.1,3.2-7.1,7.4c0,4.3,2.7,7.4,7.1,7.4c3.1,0,5.4-1.4,6.5-4.7h-3.4c-0.2,0.9-1.5,1.8-3,1.8
		c-2.1,0-3.3-1.1-3.4-3.6h10C400.2,37.3,397.9,33.3,393.2,33.3z M389.9,39.2c0.1-1.1,0.8-3,3.2-3c1.9,0,2.7,1,3,3H389.9z"/>
	<path class="st0" d="M410.1,33.3c-1.6,0-3.3,0.8-4.2,2.3h-0.1v-2h-3.6v14h3.8v-7.4c0-2.9,0.9-4,3-4c1.8,0,2.4,1.1,2.4,3.4v7.9h3.8
		v-8.6C415.2,35.6,414.1,33.3,410.1,33.3z"/>
	<path class="st0" d="M424.7,32.6v1.1h-2.3v2.6h2.3v11.5h3.8V36.3h2.6v-2.6h-2.6v-0.8c0-1.2,0.4-1.6,1.5-1.6c0.5,0,0.9,0,1.4,0.1
		v-2.9c-0.6,0-1.3-0.1-2-0.1C426.2,28.3,424.7,30.1,424.7,32.6z"/>
	<g>
		<rect x="434.7" y="28.3" class="st1" width="3.6" height="3.2"/>
		<rect x="440.2" y="28.3" class="st1" width="3.6" height="3.2"/>
		<path class="st1" d="M439.3,33.3c-4.3,0-7.2,2.9-7.2,7.4c0,4.4,2.8,7.4,7.2,7.4c4.4,0,7.2-2.9,7.2-7.4
			C446.4,36.2,443.6,33.3,439.3,33.3z M439.3,45.2c-2.6,0-3.4-2.3-3.4-4.5c0-2.3,0.8-4.5,3.4-4.5s3.4,2.3,3.4,4.5
			C442.6,42.9,441.9,45.2,439.3,45.2z"/>
	</g>
	<path class="st0" d="M452.6,36.3L452.6,36.3l-0.1-2.6h-3.6v14h3.8v-6.3c0-2.5,1-4.5,3.8-4.5c0.5,0,1,0.1,1.4,0.1v-3.6
		c-0.2-0.1-0.6-0.1-0.8-0.1C455.1,33.3,453.3,34.5,452.6,36.3z"/>
	<path class="st0" d="M259.3,71.4L259.3,71.4l-3.2-9.6H252l4.9,13.2c0.4,1.1,0,2.5-1.3,2.6c-0.8,0-1.5-0.1-2.2-0.1v3.2
		c0.8,0.1,1.6,0.1,2.3,0.1c2.6,0,3.9-0.9,4.8-3.2l5.8-15.8h-3.9L259.3,71.4z"/>
	<path class="st0" d="M271.4,64.4L271.4,64.4l-0.1-2.6h-3.6v14h3.8v-6.3c0-2.5,1-4.5,3.8-4.5c0.5,0,1,0.1,1.4,0.1v-3.6
		c-0.2-0.1-0.6-0.1-0.8-0.1C274,61.4,272.1,62.6,271.4,64.4z"/>
	<polygon class="st0" points="291.5,61.8 287,61.8 282.2,66.8 282.2,56.4 278.4,56.4 278.4,75.8 282.2,75.8 282.2,71 283.7,69.6 
		287.5,75.8 292.1,75.8 286.3,66.9 	"/>
	<path class="st0" d="M299.1,61.4c-4.2,0-7.1,3.2-7.1,7.4c0,4.3,2.7,7.4,7.1,7.4c3.1,0,5.4-1.4,6.5-4.7h-3.4c-0.2,0.9-1.5,1.8-3,1.8
		c-2.1,0-3.3-1.1-3.4-3.6h10C306.1,65.4,303.8,61.4,299.1,61.4z M295.8,67.3c0.1-1.1,0.8-3,3.2-3c1.9,0,2.7,1,3,3H295.8z"/>
	<path class="st0" d="M315.8,67.4c-2.2-0.5-4.3-0.7-4.3-2.1c0-1.1,1.3-1.3,2.1-1.3c1.4,0,2.5,0.4,2.6,1.9h3.6
		c-0.3-3.4-3.1-4.5-6.1-4.5s-6,0.9-6,4.5c0,2.5,2.2,3.3,4.4,3.7c2.7,0.6,4.3,1,4.3,2.2c0,1.4-1.4,1.8-2.5,1.8
		c-1.5,0-2.9-0.7-2.9-2.4h-3.6c0.2,3.7,3.3,4.9,6.5,4.9s6.3-1.2,6.3-4.9C320.2,68.7,318,67.9,315.8,67.4z"/>
	<path class="st0" d="M330.5,61.4c-1.4,0-3.1,0.8-4,2.3h-0.1v-7.3h-3.8v19.4h3.8v-7.4c0-2.8,0.9-4,2.9-4c1.8,0,2.4,1.1,2.4,3.4v7.9
		h3.8v-8.6C335.5,63.7,334.5,61.4,330.5,61.4z"/>
	<g>
		<path class="st1" d="M345.1,61.4c-4.3,0-7.2,2.9-7.2,7.4s2.8,7.4,7.2,7.4c4.4,0,7.2-2.9,7.2-7.4C352.3,64.3,349.5,61.4,345.1,61.4
			z M345.1,73.3c-2.6,0-3.4-2.3-3.4-4.5s0.8-4.5,3.4-4.5s3.4,2.3,3.4,4.5S347.7,73.3,345.1,73.3z"/>
		<rect x="346.1" y="56.4" class="st1" width="3.6" height="3.2"/>
		<rect x="340.5" y="56.4" class="st1" width="3.6" height="3.2"/>
	</g>
	<path class="st0" d="M364.3,63.7L364.3,63.7c-1-1.6-2.4-2.3-4.2-2.3c-3.9,0-6,3.3-6,6.9c0,3.9,1.8,7.1,5.9,7.1
		c1.7,0,3.3-0.7,4.2-2.2h0.1V75c0,2-0.9,3.5-3.1,3.5c-1.3,0-2.5-0.5-2.8-1.9h-3.8c0.2,3.2,3.4,4.5,6.1,4.5c6.4,0,7.2-3.9,7.2-6.2
		V61.8h-3.6L364.3,63.7L364.3,63.7z M361,72.5c-2.3,0-3.1-2.2-3.1-4.2c0-2.1,0.9-4,3.1-4c2.5,0,3.2,2,3.2,4.3
		C364.3,70.6,363.2,72.5,361,72.5z"/>
	<path class="st0" d="M378.7,67.4c-2.2-0.5-4.3-0.7-4.3-2.1c0-1.1,1.3-1.3,2.1-1.3c1.4,0,2.5,0.4,2.6,1.9h3.6
		c-0.3-3.4-3.1-4.5-6.1-4.5s-6,0.9-6,4.5c0,2.5,2.2,3.3,4.4,3.7c2.7,0.6,4.3,1,4.3,2.2c0,1.4-1.4,1.8-2.5,1.8
		c-1.5,0-2.9-0.7-2.9-2.4h-3.6c0.2,3.7,3.3,4.9,6.5,4.9s6.3-1.2,6.3-4.9C383.1,68.7,381,67.9,378.7,67.4z"/>
	<polygon class="st0" points="398.8,61.8 394.3,61.8 389.5,66.8 389.5,56.4 385.7,56.4 385.7,75.8 389.5,75.8 389.5,71 390.9,69.6 
		394.8,75.8 399.4,75.8 393.5,66.9 	"/>
	<path class="st0" d="M406.6,61.4c-4.3,0-7.2,2.9-7.2,7.4s2.8,7.4,7.2,7.4c4.4,0,7.2-2.9,7.2-7.4C413.8,64.3,411,61.4,406.6,61.4z
		 M406.6,73.3c-2.6,0-3.4-2.3-3.4-4.5c0-2.3,0.8-4.5,3.4-4.5s3.4,2.3,3.4,4.5S409.2,73.3,406.6,73.3z"/>
	<rect x="416.3" y="56.4" class="st0" width="3.8" height="19.4"/>
	<path class="st0" d="M435.5,65.4c0-3.4-3.3-4-6.1-4c-3.1,0-6.3,1.1-6.5,4.7h3.8c0.1-1.5,1.1-2.1,2.5-2.1c1.3,0,2.5,0.2,2.5,1.9
		c0,1.6-2.2,1.5-4.5,1.8c-2.4,0.3-4.7,1.1-4.7,4.3c0,2.9,2.1,4.2,4.7,4.2c1.7,0,3.5-0.5,4.7-1.7c0,0.5,0.1,0.9,0.3,1.4h3.9
		c-0.3-0.6-0.5-1.8-0.5-3.1L435.5,65.4L435.5,65.4z M431.7,70.4c0,0.8-0.1,3.2-3.1,3.2c-1.2,0-2.3-0.4-2.3-1.8s1.1-1.8,2.3-2.1
		c1.2-0.2,2.5-0.2,3.2-0.8v1.5C431.8,70.4,431.7,70.4,431.7,70.4z"/>
	<path class="st0" d="M446.5,61.4c-1.6,0-3.3,0.8-4.2,2.3h-0.1v-2h-3.6v14h3.8v-7.4c0-2.8,0.9-4,3-4c1.8,0,2.4,1.1,2.4,3.4v7.9h3.8
		V67C451.6,63.7,450.5,61.4,446.5,61.4z"/>
</g>
<rect id="square" x="125.6" class="st2" width="108.4" height="109.4"/>
<path id="h" class="st0" d="M213.7,44.4c-0.9-1.2-2.2-2.2-3.8-2.9s-3.7-1-6.1-1c-1.8,0-3.6,0.5-5.4,1.4c-1.8,0.9-3.4,2.4-4.5,4.4
	h-0.2V28.4h-9.3v47.5h9.3v-18c0-3.5,0.6-6,1.7-7.6c1.1-1.5,3-2.3,5.5-2.3c2.2,0,3.8,0.7,4.7,2.1c0.9,1.4,1.3,3.5,1.3,6.4v19.4h9.3
	V54.7c0-2.1-0.2-4.1-0.6-5.8C215.2,47.1,214.6,45.6,213.7,44.4z"/>
<polygon id="Y" class="st0" points="160,47.1 149.1,28.3 137.5,28.3 154.7,57.3 154.7,75.8 165,75.8 165,57.6 182.5,28.3 171,28.3 
	"/>
<polygon id="M" class="st0" points="59.1,75.2 58.8,75.2 33.5,0 0,0 0,109.4 22.3,109.4 22.3,32.6 22.6,32.6 49.1,109.4 67.4,109.4 
	93.9,31.8 94.2,31.8 94.2,109.4 116.4,109.4 116.4,0 83,0 "/>
</svg>
