<svg xmlns="http://www.w3.org/2000/svg" viewBox="0 0 438.2 246.9"><defs><style>.cls-1{fill:#fbea26;}.cls-2{fill:#191e27;}.cls-3{fill:#fefe00;}</style></defs><title>Resurs 1</title><g id="Lager_2" data-name="Lager 2"><g id="Lager_1-2" data-name="Lager 1"><path class="cls-1" d="M219.1.1H438.2q-.1,123.5-.1,246.9H0Q.2,123.5,0,0Z"/><path class="cls-2" d="M179.3,83.9a31,31,0,0,1,.7-43,42.9,42.9,0,0,1,22.9-11.8c12.4-2.5,24.5-1.4,35.6,4.9s17.7,17.7,18.3,31.5c.1,1.8-.4,2.1-2,2.1h-21c-2,0-2.4-.7-2.7-2.6-1.6-12.1-13-18.4-24.1-13.5-9.3,4.1-11,13.7-3.7,20.6,4.3,4.1,9.6,6.8,14.9,9.3,8.6,4.2,17.5,7.9,25.8,12.6,5.8,3.3,11.3,7,15.7,12a31.2,31.2,0,0,1-9.5,48.4l-2.9,1.3c-.4.8.1,1.1.4,1.4,15.3,15.6,12.9,39-5.9,49.8s-39.2,10.7-58.4-.4c-11-6.3-15-17.2-15.5-29.5,0-1.8.6-2.4,2.4-2.3,6.8.1,13.7,0,20.6,0,1.8,0,2.5.4,2.8,2.4,2.1,12.9,16.6,19.7,28.2,13.3,7.2-3.9,8.6-13.6,2.9-20-3.8-4.3-8.6-7.1-13.7-9.6-9-4.4-18.3-8.6-27.3-13.1-6.7-3.4-12.9-7.6-17.9-13.4-14.4-16.7-9.2-40.2,10.8-49.2Z"/><path class="cls-3" d="M232.3,142.6a16.7,16.7,0,0,1-6.8-2l-35-19.1c-8.4-4.6-9.5-14.3-2.4-20.9,3.3-3.1,6.1-3.6,10.1-1.4,11.8,6.7,23.7,13.3,35.4,20.1,8.9,5.1,10.9,13.4,5.1,20.1C237,141.4,235,142.7,232.3,142.6Z"/></g></g></svg>